:SAMPLES-PER-SECOND 30
:FULLY-SPECIFIED
:DEGREES
332
root  -3.81494 40.7797 -0.609246 -1.00195 -59.11 4.87273
RightUpLeg  6.70945 -3.63928 -1.47144
RightLeg  -7.6715 -48.6287 6.48674
RightFoot  -2.4972 -0.352173 4.32197
RightToes  -3.10096e-008 1.75238e-005 3.56266e-009
Spine  -1.01071 10.7944 10.2804
Spine1  2.77012 14.3206 -17.5764
HEad  -19.6151 -34.0893 32.4091
LeftShoulder1  3.3063 -6.52545 -26.8794
LeftArm  -17.4854 34.4266 -45.4816
LeftForeArm  16.9208 -42.3224 -9.07224
LeftHand  0.193011 -5.06767 -1.83826
RightShoulder  4.44105 10.795 24.949
RightArm  -9.07012 63.3725 44.2882
RightForeArm  -56.1403 49.038 15.6375
RightHand  -0.375597 2.99983 -5.4198
LeftUpLeg  -5.57774 -2.83544 -0.279077
LeftLeg  1.01774 -14.2963 0.529799
LeftFoot  1.39254 0.244832 -2.31447
LeftToes  4.7633e-008 1.48299e-008 1.30754e-009
333
root  -3.81428 40.7705 -0.538839 -0.963913 -59.4825 4.82744
RightUpLeg  6.60989 -3.72316 -1.57884
RightLeg  -7.22052 -48.1992 6.12686
RightFoot  -2.57168 -0.365265 4.50935
RightToes  -3.10096e-008 1.75238e-005 3.56266e-009
Spine  -1.21854 10.1386 9.44752
Spine1  1.58094 13.3493 -17.0765
HEad  -17.5424 -33.3973 30.4403
LeftShoulder1  3.23383 -6.40834 -26.5201
LeftArm  -17.5404 36.2612 -45.761
LeftForeArm  17.6436 -45.8728 -10.3122
LeftHand  0.217594 -5.0463 -2.11686
RightShoulder  4.72219 10.6263 27.4143
RightArm  -7.46289 57.4221 40.1139
RightForeArm  -38.6118 57.843 20.8531
RightHand  -0.459775 4.14932 -5.87806
LeftUpLeg  -5.05266 -2.65243 -0.211564
LeftLeg  0.199573 -14.1064 0.534649
LeftFoot  1.27869 0.238527 -2.22437
LeftToes  4.7633e-008 1.48299e-008 1.30754e-009
334
root  -3.82409 40.7792 -0.498844 -0.815125 -59.2579 4.76437
RightUpLeg  6.78768 -3.71748 -1.60281
RightLeg  -7.87349 -48.371 6.68389
RightFoot  -2.46653 -0.35786 4.37795
RightToes  -3.10096e-008 1.75238e-005 3.56266e-009
Spine  -3.12926 9.49207 6.78144
Spine1  2.7203 12.1836 -13.6077
HEad  -16.3698 -32.2724 27.9555
LeftShoulder1  3.38155 -6.59841 -27.3967
LeftArm  -16.9583 37.2137 -45.641
LeftForeArm  19.1039 -50.2347 -12.0371
LeftHand  0.19022 -5.48976 -1.71134
RightShoulder  4.71716 10.0917 28.7259
RightArm  -6.44767 51.6162 36.2986
RightForeArm  -18.9737 66.0082 29.0139
RightHand  -0.439634 5.39536 -5.04093
LeftUpLeg  -5.01592 -2.45692 -0.153162
LeftLeg  -0.0505485 -14.5318 0.435921
LeftFoot  1.3573 0.257292 -2.38642
LeftToes  4.7633e-008 1.48299e-008 1.30754e-009
335
root  -3.82554 40.7896 -0.464783 -0.711548 -58.7895 4.77908
RightUpLeg  6.94368 -3.75316 -1.669
RightLeg  -8.56129 -48.7558 7.29783
RightFoot  -2.35798 -0.352981 4.28845
RightToes  -3.10096e-008 1.75238e-005 3.56266e-009
Spine  -5.52213 8.62879 4.39762
Spine1  4.78376 10.9786 -10.5348
HEad  -15.8374 -29.9241 25.5338
LeftShoulder1  3.54973 -6.96536 -27.8471
LeftArm  -16.8306 37.2656 -46.3094
LeftForeArm  19.751 -54.4409 -14.1578
LeftHand  0.175688 -5.96445 -1.46324
RightShoulder  4.71625 9.78976 29.5317
RightArm  -6.78294 45.7353 32.2883
RightForeArm  -2.6275 72.9754 44.0162
RightHand  -0.339381 6.22652 -3.71777
LeftUpLeg  -5.01687 -2.21921 -0.121949
LeftLeg  -0.360484 -15.2463 0.261236
LeftFoot  1.50275 0.280835 -2.57622
LeftToes  4.7633e-008 1.48299e-008 1.30754e-009
336
root  -3.8058 40.7915 -0.442973 -0.780426 -58.4769 4.87109
RightUpLeg  6.85303 -3.88556 -1.80088
RightLeg  -8.2571 -48.9546 7.15356
RightFoot  -2.44778 -0.356939 4.33845
RightToes  -3.10096e-008 1.75238e-005 3.56266e-009
Spine  -6.55166 7.58509 2.63528
Spine1  5.4782 9.68594 -8.66157
HEad  -15.5245 -28.5709 23.831
LeftShoulder1  3.644 -7.20187 -27.982
LeftArm  -16.6231 36.9341 -46.8068
LeftForeArm  20.6336 -58.4408 -16.658
LeftHand  0.186581 -6.21529 -1.53083
RightShoulder  4.7896 9.61545 30.5835
RightArm  -7.32631 39.6644 29.3862
RightForeArm  18.3736 76.9903 66.8577
RightHand  -0.260397 6.62028 -2.853
LeftUpLeg  -5.07048 -2.26732 -0.232381
LeftLeg  -0.370605 -15.4915 0.246323
LeftFoot  1.55808 0.299436 -2.73297
LeftToes  4.7633e-008 1.48299e-008 1.30754e-009
337
root  -3.76314 40.7794 -0.434354 -0.7957 -58.4147 4.75285
RightUpLeg  6.73025 -3.9578 -1.80297
RightLeg  -7.61347 -48.9779 6.69392
RightFoot  -2.56414 -0.361334 4.39715
RightToes  -3.10096e-008 1.75238e-005 3.56266e-009
Spine  -7.13028 6.53388 1.21438
Spine1  6.06316 8.37167 -6.80699
HEad  -14.9261 -26.1077 21.6618
LeftShoulder1  3.63857 -7.12391 -28.1849
LeftArm  -16.547 35.136 -46.8873
LeftForeArm  21.9326 -61.3747 -18.8691
LeftHand  0.217219 -5.90594 -1.90068
RightShoulder  4.87423 9.56498 31.3794
RightArm  -7.69648 34.5817 26.5874
RightForeArm  40.8167 78.0505 87.8323
RightHand  -0.30854 6.86498 -3.26913
LeftUpLeg  -4.97011 -2.24218 -0.193406
LeftLeg  -0.423939 -15.5964 0.214577
LeftFoot  1.46089 0.291605 -2.67793
LeftToes  4.7633e-008 1.48299e-008 1.30754e-009
338
root  -3.70673 40.7864 -0.433127 -0.963486 -58.6834 4.75972
RightUpLeg  6.7003 -3.98201 -1.86445
RightLeg  -7.29683 -48.7208 6.41641
RightFoot  -2.52818 -0.356886 4.3201
RightToes  -3.10096e-008 1.75238e-005 3.56266e-009
Spine  -7.38087 5.71107 0.422565
Spine1  6.26123 7.42553 -5.98243
HEad  -15.0136 -24.3176 20.6551
LeftShoulder1  3.63465 -7.20518 -27.8813
LeftArm  -16.8435 32.0903 -46.8479
LeftForeArm  23.6814 -62.6863 -19.915
LeftHand  0.19773 -6.29214 -1.6206
RightShoulder  5.0396 9.66649 32.3597
RightArm  -8.36422 30.0093 23.827
RightForeArm  51.8983 77.9207 98.4529
RightHand  -0.254017 6.90613 -2.74572
LeftUpLeg  -4.8988 -2.27849 -0.238803
LeftLeg  -0.318112 -15.291 0.223024
LeftFoot  1.533 0.292177 -2.68233
LeftToes  4.7633e-008 1.48299e-008 1.30754e-009
339
root  -3.64516 40.8057 -0.438424 -1.24255 -59.3196 4.85698
RightUpLeg  6.76298 -3.96751 -1.98078
RightLeg  -7.26479 -48.1048 6.29941
RightFoot  -2.36531 -0.36258 4.40167
RightToes  -3.10096e-008 1.75238e-005 3.56266e-009
Spine  -7.14165 5.41178 0.16065
Spine1  5.96143 7.07043 -5.78411
HEad  -15.2862 -23.5797 20.2506
LeftShoulder1  3.83807 -7.71221 -28.167
LeftArm  -16.7877 27.7451 -45.6816
LeftForeArm  22.5598 -63.1393 -20.5107
LeftHand  0.147712 -5.93255 -1.18932
RightShoulder  4.9441 9.40944 32.3769
RightArm  -9.62829 25.301 21.8312
RightForeArm  54.2473 77.7189 102.43
RightHand  -0.284942 6.59364 -3.10259
LeftUpLeg  -4.74428 -2.21183 -0.260216
LeftLeg  -0.288175 -14.7019 0.172293
LeftFoot  1.75459 0.29414 -2.67699
LeftToes  4.7633e-008 1.48299e-008 1.30754e-009
340
root  -3.58793 40.8132 -0.445627 -1.48383 -60.1581 4.80157
RightUpLeg  6.83134 -3.93077 -2.01038
RightLeg  -6.96654 -47.305 5.97446
RightFoot  -2.30369 -0.36289 4.40044
RightToes  -3.10096e-008 1.75238e-005 3.56266e-009
Spine  -7.1232 5.05967 -0.254217
Spine1  6.21164 6.56712 -4.93869
HEad  -15.0125 -22.2376 18.6221
LeftShoulder1  3.95447 -7.8497 -28.7971
LeftArm  -18.1089 22.0536 -44.4824
LeftForeArm  20.2459 -62.5546 -20.2052
LeftHand  0.132519 -5.6796 -1.04224
RightShoulder  4.76871 9.24477 31.4973
RightArm  -11.1356 22.0792 20.7487
RightForeArm  47.0037 77.8488 97.0961
RightHand  -0.326014 6.08019 -3.62556
LeftUpLeg  -4.34037 -2.0457 -0.151353
LeftLeg  -0.469533 -14.0296 0.15463
LeftFoot  1.75942 0.297356 -2.68125
LeftToes  4.7633e-008 1.48299e-008 1.30754e-009
341
root  -3.53157 40.8177 -0.473114 -1.64371 -60.8997 4.70911
RightUpLeg  6.89237 -3.79854 -1.93107
RightLeg  -6.87882 -46.7131 5.76973
RightFoot  -2.2167 -0.354539 4.26516
RightToes  -3.10096e-008 1.75238e-005 3.56266e-009
Spine  -6.83232 4.69842 -0.0161861
Spine1  5.87407 6.22566 -5.27065
HEad  -14.5187 -21.2519 17.8389
LeftShoulder1  3.9543 -7.91817 -28.5784
LeftArm  -19.6259 15.3369 -43.25
LeftForeArm  14.4414 -60.8886 -19.3019
LeftHand  -0.076333 -4.3166 1.19222
RightShoulder  4.80501 9.42657 31.2449
RightArm  -13.1831 19.1999 19.5949
RightForeArm  33.9416 77.8652 85.7005
RightHand  -0.354307 5.76415 -4.00425
LeftUpLeg  -4.04675 -1.90262 -0.0193973
LeftLeg  -0.592144 -13.4792 0.162977
LeftFoot  1.77174 0.297753 -2.6533
LeftToes  4.7633e-008 1.48299e-008 1.30754e-009
342
root  -3.45363 40.8145 -0.50985 -1.58383 -61.4286 4.56056
RightUpLeg  6.63179 -3.77358 -1.8772
RightLeg  -6.38956 -46.2035 5.39197
RightFoot  -2.23324 -0.354102 4.25278
RightToes  -3.10096e-008 1.75238e-005 3.56266e-009
Spine  -6.32652 4.29661 -0.45173
Spine1  5.11448 5.63789 -4.50585
HEad  -14.0411 -19.9948 16.6566
LeftShoulder1  4.06875 -8.1117 -28.9995
LeftArm  -21.5164 7.98884 -41.3808
LeftForeArm  8.45947 -58.6442 -18.0412
LeftHand  -0.234527 -3.62794 3.26088
RightShoulder  4.69431 9.33447 30.6436
RightArm  -15.6037 17.3214 18.7042
RightForeArm  17.4365 77.2139 71.9021
RightHand  -0.41616 5.51339 -4.74513
LeftUpLeg  -3.94156 -1.85456 0.117376
LeftLeg  -0.81063 -13.0304 0.213112
LeftFoot  1.78229 0.304163 -2.74076
LeftToes  4.7633e-008 1.48299e-008 1.30754e-009
343
root  -3.40738 40.8192 -0.551676 -1.47546 -61.7783 4.31152
RightUpLeg  6.74782 -3.67448 -1.72852
RightLeg  -6.76322 -45.9514 5.66535
RightFoot  -2.10931 -0.340097 4.02942
RightToes  -3.10096e-008 1.75238e-005 3.56266e-009
Spine  -6.24741 3.78309 -0.603042
Spine1  4.94215 5.08129 -4.38292
HEad  -13.4352 -19.3481 15.8634
LeftShoulder1  4.08021 -8.27313 -28.6069
LeftArm  -24.0007 0.579104 -39.6554
LeftForeArm  5.09175 -56.4479 -16.7458
LeftHand  -0.323139 -3.55991 4.4628
RightShoulder  4.63755 9.24683 30.4465
RightArm  -18.8387 16.2529 18.2723
RightForeArm  1.21609 75.7014 58.3484
RightHand  -0.432599 5.05107 -5.10402
LeftUpLeg  -3.92973 -1.75807 0.279967
LeftLeg  -0.71574 -12.7856 0.237936
LeftFoot  1.7812 0.308734 -2.75039
LeftToes  4.7633e-008 1.48299e-008 1.30754e-009
344
root  -3.35588 40.825 -0.590549 -1.54764 -62.2975 4.26709
RightUpLeg  6.58554 -3.65076 -1.71682
RightLeg  -6.37079 -45.4788 5.37419
RightFoot  -2.13538 -0.34094 4.03587
RightToes  -3.10096e-008 1.75238e-005 3.56266e-009
Spine  -5.65467 3.38375 -1.18155
Spine1  4.09395 4.55617 -3.84949
HEad  -12.9981 -19.0944 15.232
LeftShoulder1  4.05229 -8.36363 -28.0931
LeftArm  -26.1459 -6.23643 -38.1208
LeftForeArm  1.70358 -54.7968 -15.9447
LeftHand  -0.259876 -3.1482 3.7299
RightShoulder  4.53915 9.06426 30.1893
RightArm  -22.6717 15.4595 18.1278
RightForeArm  -8.29077 73.5548 47.2717
RightHand  -0.345713 4.93326 -4.17878
LeftUpLeg  -3.84988 -1.71587 0.360706
LeftLeg  -0.736962 -12.327 0.275857
LeftFoot  1.84053 0.321331 -2.8667
LeftToes  4.7633e-008 1.48299e-008 1.30754e-009
345
root  -3.31924 40.8396 -0.636715 -1.67679 -62.8773 4.21402
RightUpLeg  6.6316 -3.60219 -1.68371
RightLeg  -6.34781 -44.9525 5.35981
RightFoot  -2.08789 -0.327918 3.82578
RightToes  -3.10096e-008 1.75238e-005 3.56266e-009
Spine  -4.97839 2.86841 -1.6338
Spine1  3.21542 3.92818 -3.47752
HEad  -12.7311 -18.4875 14.2545
LeftShoulder1  3.97078 -8.36138 -27.393
LeftArm  -26.8048 -11.788 -36.1133
LeftForeArm  -2.11667 -54.5448 -16.1073
LeftHand  0.0374037 -2.9033 -0.315677
RightShoulder  4.52135 9.11472 29.8981
RightArm  -26.866 15.2567 18.5081
RightForeArm  -12.8366 71.1701 39.1903
RightHand  -0.253574 4.75466 -3.19728
LeftUpLeg  -3.72373 -1.52838 0.50426
LeftLeg  -0.677604 -11.9455 0.221205
LeftFoot  1.95906 0.330384 -2.94821
LeftToes  4.7633e-008 1.48299e-008 1.30754e-009
